<mxfile host="Electron" agent="Mozilla/5.0 (Windows NT 10.0; Win64; x64) AppleWebKit/537.36 (KHTML, like Gecko) draw.io/25.0.2 Chrome/128.0.6613.186 Electron/32.2.5 Safari/537.36" version="25.0.2">
  <diagram name="Страница — 1" id="ruKB8HblV4mvywd_ZRTO">
    <mxGraphModel dx="1290" dy="717" grid="1" gridSize="10" guides="1" tooltips="1" connect="1" arrows="1" fold="1" page="1" pageScale="1" pageWidth="827" pageHeight="1169" math="0" shadow="0">
      <root>
        <mxCell id="0" />
        <mxCell id="1" parent="0" />
        <mxCell id="-iafWj_V4Cl6egdA19SS-1" value="Pair" style="swimlane;fontStyle=1;align=center;verticalAlign=top;childLayout=stackLayout;horizontal=1;startSize=26;horizontalStack=0;resizeParent=1;resizeParentMax=0;resizeLast=0;collapsible=1;marginBottom=0;whiteSpace=wrap;html=1;" vertex="1" parent="1">
          <mxGeometry x="340" y="40" width="200" height="270" as="geometry" />
        </mxCell>
        <mxCell id="-iafWj_V4Cl6egdA19SS-2" value="&lt;div&gt;- first :&amp;nbsp;&lt;span style=&quot;background-color: initial;&quot;&gt;int&lt;/span&gt;&lt;span style=&quot;background-color: initial;&quot;&gt;&amp;nbsp;&lt;/span&gt;&lt;/div&gt;&lt;div&gt;- second :&amp;nbsp;&lt;span style=&quot;background-color: initial;&quot;&gt;double&lt;/span&gt;&lt;span style=&quot;background-color: initial;&quot;&gt;&amp;nbsp;&lt;/span&gt;&lt;/div&gt;" style="text;strokeColor=none;fillColor=none;align=left;verticalAlign=top;spacingLeft=4;spacingRight=4;overflow=hidden;rotatable=0;points=[[0,0.5],[1,0.5]];portConstraint=eastwest;whiteSpace=wrap;html=1;" vertex="1" parent="-iafWj_V4Cl6egdA19SS-1">
          <mxGeometry y="26" width="200" height="34" as="geometry" />
        </mxCell>
        <mxCell id="-iafWj_V4Cl6egdA19SS-3" value="" style="line;strokeWidth=1;fillColor=none;align=left;verticalAlign=middle;spacingTop=-1;spacingLeft=3;spacingRight=3;rotatable=0;labelPosition=right;points=[];portConstraint=eastwest;strokeColor=inherit;" vertex="1" parent="-iafWj_V4Cl6egdA19SS-1">
          <mxGeometry y="60" width="200" height="8" as="geometry" />
        </mxCell>
        <mxCell id="-iafWj_V4Cl6egdA19SS-4" value="&lt;div&gt;+ Pair()&lt;/div&gt;&lt;div&gt;+ Pair(F :&amp;nbsp;&lt;span style=&quot;background-color: initial;&quot;&gt;int&lt;/span&gt;&lt;span style=&quot;background-color: initial;&quot;&gt;, S :&amp;nbsp;&lt;/span&gt;&lt;span style=&quot;background-color: initial;&quot;&gt;double&lt;/span&gt;&lt;span style=&quot;background-color: initial;&quot;&gt;&amp;nbsp;&lt;/span&gt;&lt;span style=&quot;background-color: initial;&quot;&gt;)&lt;/span&gt;&lt;/div&gt;&lt;div&gt;+ Pair(p :&amp;nbsp;&lt;span style=&quot;background-color: initial;&quot;&gt;const Pair&amp;amp;&lt;/span&gt;&lt;span style=&quot;background-color: initial;&quot;&gt;)&lt;/span&gt;&lt;/div&gt;&lt;div&gt;+ get_first() :&amp;nbsp;&lt;span style=&quot;background-color: initial;&quot;&gt;int&lt;/span&gt;&lt;span style=&quot;background-color: initial;&quot;&gt;&amp;nbsp;&lt;/span&gt;&lt;/div&gt;&lt;div&gt;+ get_second() :&amp;nbsp;&lt;span style=&quot;background-color: initial;&quot;&gt;double&lt;/span&gt;&lt;span style=&quot;background-color: initial;&quot;&gt;&amp;nbsp;&lt;/span&gt;&lt;/div&gt;&lt;div&gt;+ set_first(F :&amp;nbsp;&lt;span style=&quot;background-color: initial;&quot;&gt;int&lt;/span&gt;&lt;span style=&quot;background-color: initial;&quot;&gt;) :&amp;nbsp;&lt;/span&gt;&lt;span style=&quot;background-color: initial;&quot;&gt;void&lt;/span&gt;&lt;span style=&quot;background-color: initial;&quot;&gt;&amp;nbsp;&lt;/span&gt;&lt;/div&gt;&lt;div&gt;+ set_second(S :&amp;nbsp;&lt;span style=&quot;background-color: initial;&quot;&gt;double&lt;/span&gt;&lt;span style=&quot;background-color: initial;&quot;&gt;) :&amp;nbsp;&lt;/span&gt;&lt;span style=&quot;background-color: initial;&quot;&gt;void&lt;/span&gt;&lt;span style=&quot;background-color: initial;&quot;&gt;&amp;nbsp;&lt;/span&gt;&lt;/div&gt;&lt;div&gt;+ operator=(p :&amp;nbsp;&lt;span style=&quot;background-color: initial;&quot;&gt;const Pair&amp;amp;&lt;/span&gt;&lt;span style=&quot;background-color: initial;&quot;&gt;) :&amp;nbsp;&lt;/span&gt;&lt;span style=&quot;background-color: initial;&quot;&gt;Pair&lt;/span&gt;&lt;span style=&quot;background-color: initial;&quot;&gt;&amp;nbsp;&lt;/span&gt;&lt;/div&gt;&lt;div&gt;+ operator==(p :&amp;nbsp;&lt;span style=&quot;background-color: initial;&quot;&gt;const Pair&amp;amp;&lt;/span&gt;&lt;span style=&quot;background-color: initial;&quot;&gt;) :&amp;nbsp;&lt;/span&gt;&lt;span style=&quot;background-color: initial;&quot;&gt;bool&lt;/span&gt;&lt;/div&gt;&lt;div&gt;+ operator&amp;gt;(p :&amp;nbsp;&lt;span style=&quot;background-color: initial;&quot;&gt;const Pair&amp;amp;&lt;/span&gt;&lt;span style=&quot;background-color: initial;&quot;&gt;)&amp;nbsp; :&amp;nbsp;&lt;/span&gt;&lt;span style=&quot;background-color: initial;&quot;&gt;bool&lt;/span&gt;&lt;span style=&quot;background-color: initial;&quot;&gt;&amp;nbsp;&lt;/span&gt;&lt;/div&gt;&lt;div&gt;+ operator&amp;lt;(p :&amp;nbsp;&lt;span style=&quot;background-color: initial;&quot;&gt;const Pair&amp;amp;&lt;/span&gt;&lt;span style=&quot;background-color: initial;&quot;&gt;) :&amp;nbsp;&lt;/span&gt;&lt;span style=&quot;background-color: initial;&quot;&gt;bool&lt;/span&gt;&lt;span style=&quot;background-color: initial;&quot;&gt;&amp;nbsp;&lt;/span&gt;&lt;/div&gt;&lt;div&gt;+ operator+(p :&amp;nbsp;&lt;span style=&quot;background-color: initial;&quot;&gt;const Pair&amp;amp;&lt;/span&gt;&lt;span style=&quot;background-color: initial;&quot;&gt;) :&amp;nbsp;&lt;/span&gt;&lt;span style=&quot;background-color: initial;&quot;&gt;Pair&lt;/span&gt;&lt;/div&gt;&lt;div&gt;+ operator/(n :&amp;nbsp;&lt;span style=&quot;background-color: initial;&quot;&gt;const int&lt;/span&gt;&lt;span style=&quot;background-color: initial;&quot;&gt;) :&amp;nbsp;&lt;/span&gt;&lt;span style=&quot;background-color: initial;&quot;&gt;Pair&lt;/span&gt;&lt;span style=&quot;background-color: initial;&quot;&gt;&amp;nbsp;&lt;/span&gt;&lt;/div&gt;" style="text;strokeColor=none;fillColor=none;align=left;verticalAlign=top;spacingLeft=4;spacingRight=4;overflow=hidden;rotatable=0;points=[[0,0.5],[1,0.5]];portConstraint=eastwest;whiteSpace=wrap;html=1;" vertex="1" parent="-iafWj_V4Cl6egdA19SS-1">
          <mxGeometry y="68" width="200" height="202" as="geometry" />
        </mxCell>
      </root>
    </mxGraphModel>
  </diagram>
</mxfile>
